<svg width="34" height="29" viewBox="0 0 34 29" fill="none" xmlns="http://www.w3.org/2000/svg">
<g id="Image 257" clip-path="url(#clip0_34_104)">
<g id="Group">
<g id="Group_2">
<g id="Group_3">
<g id="Group_4">
<g id="Group_5">
<path id="Vector" d="M23.3495 13.6545C26.7759 13.6545 29.5535 10.8984 29.5535 7.49854C29.5535 4.09868 26.7759 1.34254 23.3495 1.34254C19.9231 1.34254 17.1455 4.09868 17.1455 7.49854C17.1455 10.8984 19.9231 13.6545 23.3495 13.6545Z" fill="#15ABFF"/>
</g>
<g id="Group_6">
<path id="Vector_2" d="M23.3495 28.3834C26.7759 28.3834 29.5535 25.6272 29.5535 22.2274C29.5535 18.8275 26.7759 16.0714 23.3495 16.0714C19.9231 16.0714 17.1455 18.8275 17.1455 22.2274C17.1455 25.6272 19.9231 28.3834 23.3495 28.3834Z" fill="#F9623E"/>
</g>
<g id="Group_7">
<path id="Vector_3" d="M3.01733 11.7849C3.01733 6.0052 7.73932 1.31975 13.5641 1.31975V17.9409C13.5641 23.7207 8.84214 28.4062 3.01733 28.4062V11.7849Z" fill="#6D31ED"/>
</g>
</g>
</g>
</g>
</g>
</g>
<defs>
<clipPath id="clip0_34_104">
<rect width="34" height="28" fill="white" transform="translate(0 0.902954)"/>
</clipPath>
</defs>
</svg>
